<svg xmlns="http://www.w3.org/2000/svg" width="226.358mm" height="857470.148" viewBox="0 0 802.05483 803.87828">
    <path d="M367.8 796.324c-7.265-4.937-6.742 5.558-6.742-135.35 0-139.453.512-128.56-6.165-131.053-1.834-.684-5.456-2.173-8.048-3.31-8.413-3.686-7.724-12.04-8.022 97.28-.264 96.464-.273 96.827-2.357 99.64-3.706 5-8.408 7.56-12.908 7.022-2.2-.263-4.86-.562-5.914-.99-2.924-1.07-5.918-5.457-5.918-5.457l-2.168-4.605-.272-108.02c-.25-99.358-.406-108.166-1.945-109.867-1.588-1.756-1.36-2.16 4.49-8.01l6.16-6.163 2.35 2.207c3.057 3.003 5.575 5.12 9.28 7.57 3.615 1.9 20.943 13.075 37.438 18.7 18.94 4.788 31.048 7.1 51.5 4.075 8.35-1.322 23.85-6.265 31.5-10.044 13.154-5.695 22.17-12.874 25.183-15.24l3.972-3.145 6.44 6.383 6.44 6.383-.267 108.055c-.25 100.962-.382 108.232-2.017 110.727-1.004 2.197-2.845 3.902-5.976 5.737-6.357 3.875-14.423 1.543-18.724-5.416-2.03-3.284-2.05-4.28-2.05-98.868 0-52.552-.273-96.262-.607-97.13-.333-.87-1.345-1.585-2.25-1.588-2.007-.006-16.158 4.973-17.892 6.296-.988.754-1.25 27.41-1.25 127.363 0 138.255.365 129.912-5.936 135.84-2.6 2.444-4.044 2.995-7.873 3-2.58.003-5.76-.38-7.067-.85-1.807-.653-2.19-.557-1.596.403.51.826.376 1.012-.39.538-.645-.398-.95-1.082-.68-1.52.526-.85-3.34-4.794-4.147-4.232-.263.183-.78 0-1.145-.41-.367-.41-.104-.42.583-.025.688.397 1.25.44 1.25.096s-.562-1.608-1.25-2.81c-2.504-90.89-1.81-141.46-2.25-251.183l-8.982-.293c-7.585-.246-9.18-.022-10.25 1.442-1.007 1.376-1.277 26.878-1.312 123.792-.037 103.68-.26 122.66-1.485 126.06-1.348 3.55-2.485 4.484-5.94 7.034-5.415 3.172-10.056 3.152-14.79-.064zm127.687-302.726c-1.625-1.785-4.18-4.615-5.682-6.29l-2.727-3.044 5.49-6.614c5.458-7.673 6.587-7.86 11.144-15.797 6.25-7.998 6.914-13.07 9.096-18.5 5.9-17.644 7.806-28.247 7.646-42.5-.09-7.96-1.848-23.254-3.22-28-4.062-14.06-5.74-18.293-11.2-28.256-6.315-9.946-13.303-19.586-14.087-20.587l-2.11-2.657 6.407-5.777 6.41-5.778 105.16.04c57.837.023 107.198.32 109.69.662 3.035.416 5.733 1.66 8.168 3.765 3.1 2.68 3.71 3.908 4.135 8.323.382 3.98-.2 6.226-1.335 9.212-1.15 2.606-2.212 4.305-5.414 5.553-1.09 1.314-13.27 1.502-98.372 1.515-54.032.01-97.743.405-98.515.894-1.584 1.004-1.284 2.9 1.837 11.59 3.797 10.58-11.226 9.5 132.412 9.502 118.093 0 126.36.113 129.618 1.75 10.384 5.217 10.833 20.788.737 25.58-3.228 1.53-13.704 1.67-126.684 1.67-77.192 0-123.836.36-124.966.963-1.504.805-1.822 2.372-1.918 9.445-.088 6.454.256 8.852 1.44 10.035 1.39 1.39 14.447 1.557 122.733 1.567 66.648.006 122.857.288 124.91.628 2.096.346 5.382 2.043 7.5 3.873 3.56 3.077 3.768 6.083 3.768 11.623.252 6.83-4.292 10.37-4.292 10.37l-4.074 2.495H661.736c-144.732 0-130.077-.99-133.203 9-.946 3.025-2.115 5.927-2.598 6.45-1.502 1.627-.964 4.433 1.057 5.515 1.295.692 33.31 1.035 96.766 1.035 90.377 0 94.995.087 98.316 1.85 1.916 1.02 4.497 3.336 5.734 5.15 4.036 5.913 2.357 15.672-3.364 19.545-77.488 4.195-114.318 2.465-221.226 2.955l-2.39 2.245-2.388 2.244zm-306.43-1.745l-108.5-.5-3.588-2.095c-1.383-.822-2.984-3.91-3.867-6.003-1.103-3.057-.79-9.22.312-12.277 1.95-3.382 2.464-3.684 4.2-5.442l3.943-2.183 97-.517c53.35-.285 97.113-.622 97.25-.75 1.375-1.28-4.14-17.982-6.597-19.983-1.21-.987-28.547-1.235-129.593-1.18-78.912.043-122.604.692-124.63.858-4.9-.745-7.744-5.326-9.423-8.563-3.277-6.284-1.237-14.28 4.73-18.535l3.264-2.33 124-.5c68.2-.274 124.563-.863 125.25-1.308.855-.553 1.25-3.796 1.25-10.25 0-5.193-.112-9.548-.25-9.678-.137-.13-56.725-.467-125.75-.75l-125.5-.513-3-2.14c-1.65-1.177-3.375-2.152-3.833-2.167-.46-.015-1.134-.36-1.5-.77-.367-.41-.028-.373.753.08 1.12.652 1.232.422.524-1.09-1.16-2.474-1.16-12.352 0-14.827.708-1.513.597-1.742-.524-1.09-.842.488-1.08.453-.587-.087.46-.5 1.135-.91 1.5-.912.368 0 2.243-1.125 4.168-2.5l3.5-2.497 127.7-.5c83.142-.326 128.044-.85 128.685-1.5.54-.55 2.075-3.925 3.41-7.5 1.333-3.575 2.74-7.23 3.122-8.12.416-.966.04-2.282-.93-3.25-1.484-1.484-10.308-1.63-98.355-1.63H80.464l-3.78-3.872c-6.483-6.637-5.976-16.47 1.127-21.888l3.59-2.74 108.725-.5c106.957-.49 108.76-.532 110.933-2.5l2.21-2 5.395 5.798c2.967 3.188 5.395 6.202 5.395 6.697 0 .496-2.25 3.606-5 6.91-7.528 9.88-14.303 15.234-21.53 38.096-1.428 4.675-3.006 9.625-3.507 11-2.72 7.454-3.714 30.312-1.9 43.677 1.575 11.618 6.377 27.72 10.346 34.696 1.292 2.27 3.79 6.807 5.55 10.082 3.422 6.37 9.748 13.447 11.827 15.093 1.718 1.436-8.205 11.858-10.285 13.488-1.737 1.272-16.258 1.4-110.5.965zm285.97-184.28c-9.09-7.51-25.7-16.22-39.97-20.96-22.354-7.427-46.473-7.277-69.5.433-12.48 4.178-14.193 5.238-15.915 6.073-2.92 1.264-8.048 4.41-8.916 4.813-4.844 2.86-9.423 4.75-10.95 7-5.693 8.37-4.536 3.303-6.28 5.022-.416.67-3.37-1.565-7.56-5.723l-6.878-6.826.006-105.026c.004-72.687.34-106.26 1.096-109.027 3.525-12.934 19.277-15.638 26.218-4.5l2.18 3.5.5 97 .5 97 3-.11c3.953-.144 14.537-4.083 16.74-6.23 1.63-1.588 1.754-9.653 2-130.33.155-76.525-.418-123.993-.42-126.25.064-1.37 1.96-4.084 3.482-5.287 5.8-5.697 17.49-5.6 22.968 2.08l2.23 3.127.5 124.786c.44 109.466.684 124.902 2 125.734 2.205 1.394 16.36 1.217 17.8-.22.92-.922 1.2-29.68 1.2-123.352 0-88.685.312-123.082 1.14-125.55 3.01-8.99 12.577-13.216 21.274-9.4 2.416 1.267 2.76 2.243 4.588 4.5l2.498 3.5.5 128.168c.275 70.49.783 128.45 1.128 128.795.604.603 12.345 5.145 16.272 6.293 4.678 1.37 4.6 3.044 4.6-99.318V81.11l2.74-3.593c2.49-2.76 5.39-4.783 9.368-5.374 5.685-.64 10.993 1.64 14.162 6.083l2.23 3.127.5 108.5c.376 81.6.797 109.016 1.697 110.584 1.07 1.867.6 2.674-4.53 7.75-3.148 3.116-5.937 5.652-6.196 5.636-.26-.017-3.86-2.83-8.002-6.25z" fill="#00f4ff" stroke="#00a5ff" stroke-width="8" stroke-linecap="round" stroke-miterlimit="5"/>
</svg>
