<?xml version="1.0" encoding="UTF-8" standalone="no"?>
<svg
   xmlns:dc="http://purl.org/dc/elements/1.1/"
   xmlns:cc="http://creativecommons.org/ns#"
   xmlns:rdf="http://www.w3.org/1999/02/22-rdf-syntax-ns#"
   xmlns:svg="http://www.w3.org/2000/svg"
   xmlns="http://www.w3.org/2000/svg"
   xmlns:sodipodi="http://sodipodi.sourceforge.net/DTD/sodipodi-0.dtd"
   xmlns:inkscape="http://www.inkscape.org/namespaces/inkscape"
   width="4in"
   height="4in"
   viewBox="0 0 360 359.99999"
   id="svg4289"
   version="1.1"
   inkscape:version="0.91 r13725"
   sodipodi:docname="zia.svg">
  <metadata
     id="metadata4299">
    <rdf:RDF>
      <cc:Work
         rdf:about="">
        <dc:format>image/svg+xml</dc:format>
        <dc:type
           rdf:resource="http://purl.org/dc/dcmitype/StillImage" />
        <dc:title></dc:title>
      </cc:Work>
    </rdf:RDF>
  </metadata>
  <defs
     id="defs4297">
    <inkscape:path-effect
       effect="spiro"
       id="path-effect4347"
       is_visible="true" />
    <inkscape:path-effect
       effect="spiro"
       id="path-effect4343"
       is_visible="true" />
  </defs>
  <sodipodi:namedview
     pagecolor="#ffffff"
     bordercolor="#666666"
     borderopacity="1"
     objecttolerance="10"
     gridtolerance="10"
     guidetolerance="10"
     inkscape:pageopacity="0"
     inkscape:pageshadow="2"
     inkscape:window-width="1436"
     inkscape:window-height="855"
     id="namedview4295"
     showgrid="false"
     units="in"
     showguides="false"
     inkscape:zoom="1.1487827"
     inkscape:cx="210.69639"
     inkscape:cy="109.08821"
     inkscape:window-x="4"
     inkscape:window-y="1"
     inkscape:window-maximized="1"
     inkscape:current-layer="svg4289" />
  <g
     id="g4291"
     transform="matrix(0.44839415,0,0,0.44839415,1.1472981,0.1074333)"
     style="stroke-width:1.39386297;stroke-miterlimit:4;stroke-dasharray:none">
    <path
       style="fill:none;fill-opacity:1;stroke:#000000;stroke-width:1.39386296;stroke-linecap:round;stroke-miterlimit:4;stroke-dasharray:none;stroke-opacity:1"
       d="m 503.08174,310.39908 104.73117,-0.56018 c 57.83726,-0.30935 107.19926,0.3199 109.69151,0.6615 3.03438,0.41591 5.73276,1.65961 8.16797,3.76468 3.10012,2.67985 3.71001,3.90767 4.13427,8.32306 0.38253,3.98101 -0.20111,6.22589 -1.33459,9.2123 -1.1507,2.60572 -2.2116,4.3047 -5.41401,5.55226 -1.09077,1.3143 -13.26941,1.5019 -98.37244,1.51531 -54.03138,0.009 -97.74294,0.40503 -98.51447,0.89364 -1.58529,1.00395 -1.28514,2.89942 1.83545,11.59105 3.79782,10.57786 -11.22607,9.49978 132.41224,9.50155 118.09448,0.001 126.36117,0.11307 129.61929,1.75 10.38413,5.21717 10.83268,20.7877 0.73686,25.57849 -3.22816,1.53188 -13.70443,1.66998 -126.6838,1.66998 -77.19297,0 -123.83743,0.36008 -124.96717,0.9647 -1.50355,0.80467 -1.82173,2.37139 -1.91813,9.4447 -0.088,6.45412 0.25599,8.85157 1.43973,10.0353 1.38983,1.38983 14.44758,1.55647 122.73387,1.56631 66.64821,0.006 122.85762,0.28856 124.9098,0.62779 2.09636,0.34654 5.38255,2.04392 7.5,3.87391 3.55975,3.07647 3.76877,6.0824 3.76877,11.6222 0.25209,6.82966 -4.29159,10.36987 -4.29159,10.36987 l -4.07497,2.49522 -127.45593,0 c -144.73207,0 -130.07622,-0.99024 -133.20232,9 -0.94657,3.025 -2.11572,5.9275 -2.59811,6.45 -1.50224,1.62714 -0.96438,4.43291 1.05718,5.51482 1.29433,0.6927 33.3083,1.03518 96.7656,1.03518 90.37686,0 94.99502,0.087 98.31574,1.85161 1.91642,1.01839 4.4969,3.33493 5.7344,5.14788 4.0364,5.91337 2.35697,15.67273 -3.36357,19.54611 -77.48895,4.19474 -114.31858,2.46476 -221.22604,2.9544 l -2.38909,2.24478 -2.38909,2.24478 m -11.36252,-12.57844 5.49016,-6.61432 c 5.45787,-7.67269 6.58716,-7.85948 11.14449,-15.7968 6.24906,-7.99746 6.91336,-13.0697 9.09553,-18.5 5.89912,-17.64407 7.80654,-28.24624 7.64615,-42.5 -0.0896,-7.95897 -1.84836,-23.25417 -3.21972,-28 -4.06241,-14.05867 -5.74082,-18.29277 -11.2005,-28.2553 -6.31447,-9.94615 -13.30278,-19.58675 -14.08673,-20.58697 l -2.11093,-2.65773 m -180.77814,-23.94636 0.006,-105.02682 c 0.004,-72.68623 0.3413,-106.258533 1.09585,-109.026823 3.52544,-12.93415 19.27741,-15.63782 26.21764,-4.5 l 2.18093,3.5 0.5,97.000003 0.5,97 3,-0.10941 c 3.95239,-0.14415 14.53686,-4.08295 16.73875,-6.22899 1.63115,-1.58979 1.75491,-9.65464 2,-130.33272 0.15541,-76.523643 -0.41769,-123.991913 -0.42005,-126.248603 0.0644,-1.36991 1.96044,-4.0842296 3.48279,-5.2865896 5.80085,-5.69781 17.49068,-5.59945 22.9682,2.0796096 l 2.22989,3.12671 0.5,124.786663 c 0.43862,109.46711 0.68415,124.90305 2,125.73468 2.20478,1.39346 16.36124,1.21741 17.8,-0.22135 0.92023,-0.92023 1.2,-29.67795 1.2,-123.35078 0,-88.684733 0.31192,-123.082063 1.13852,-125.549993 3.01083,-8.9892696 12.57865,-13.2162596 21.27552,-9.3993796 2.41606,1.26601 2.7607,2.24264 4.58756,4.50016 l 2.15522,6.5886566 0.84318,125.078196 c 0.4752,70.49071 0.78273,128.44951 1.1283,128.79497 0.60363,0.60344 12.34493,5.14509 16.27124,6.29387 4.67806,1.36873 4.60046,3.04396 4.60046,-99.31822 l 0,-96.180263 2.73985,-3.59268 c 2.4915,-2.7594 5.38945,-4.78286 9.36858,-5.37405 5.68425,-0.63976 10.99239,1.64028 14.16126,6.0828 l 2.23031,3.12671 0.5,108.500003 c 0.37603,81.59885 0.79665,109.01677 1.69648,110.58426 M 315.9994,316.63409 c 0,0.4958 -4.19134,4.81845 -6.94134,8.12291 -7.52829,9.88127 -14.30266,15.23443 -21.53091,38.09572 -1.42706,4.675 -3.00505,9.625 -3.50664,11 -2.71915,7.454 -3.71427,30.31222 -1.90148,43.67764 1.57572,11.6176 6.37804,27.72007 10.34731,34.69522 1.29172,2.26993 3.78886,6.80718 5.54921,10.08278 3.42285,6.36915 9.7484,13.44686 11.82714,15.09307 m -10.28463,13.48683 c -1.73718,1.27202 -16.25791,1.39876 -110.5,0.96446 l -108.499996,-0.5 -3.589286,-2.09432 c -1.382056,-0.82203 -2.982856,-3.90964 -3.866084,-6.00365 -1.103,-3.05656 -0.7905,-9.22069 0.3125,-12.27725 1.949747,-3.38126 2.463631,-3.68341 4.200928,-5.44199 l 3.941942,-2.18278 96.999996,-0.51716 c 53.35,-0.28444 97.1125,-0.62194 97.25,-0.75 1.37445,-1.2801 -4.13941,-17.98115 -6.59735,-19.98284 -1.21114,-0.98633 -28.54751,-1.23517 -129.59378,-1.17971 -78.911607,0.0433 -122.603793,0.69169 -124.630295,0.85758 -4.900471,-0.74537 -7.7432594,-5.32668 -9.4224104,-8.56357 -3.27739,-6.28411 -1.237478,-14.28003 4.7287504,-18.53547 l 3.265089,-2.32884 123.999996,-0.5 c 68.2,-0.275 124.5625,-0.86406 125.25,-1.30902 0.8546,-0.55311 1.25,-3.79535 1.25,-10.25 0,-5.19254 -0.1125,-9.54744 -0.25,-9.67757 -0.1375,-0.13012 -56.725,-0.46762 -125.75,-0.75 L 12.558064,389.35272 9.5580636,387.21264 c -8.94731998,-7.55222 -4.3639824,-19.86 0.5000004,-23.36147 l 3.5,-2.49845 127.700196,-0.5 c 83.14146,-0.32553 128.04366,-0.84893 128.68452,-1.5 0.54138,-0.55 2.0757,-3.925 3.40959,-7.5 1.33389,-3.575 2.73923,-7.22948 3.12298,-8.12106 0.4154,-0.9651 0.0386,-2.28021 -0.93121,-3.25 -1.4828,-1.4828 -10.30675,-1.62894 -98.35456,-1.62894 l -96.725616,0 -3.78094,-3.87203 c -6.48156,-6.63772 -5.97489,-16.4707 1.12789,-21.88901 l 3.59046,-2.73896 108.723786,-0.5 c 106.95662,-0.49187 108.75969,-0.5325 110.93307,-2.49977 m 39.66797,-9.42001 c 0.86784,-0.40321 5.99491,-3.54911 8.91597,-4.81442 1.72217,-0.83478 3.43547,-1.89446 15.91589,-6.07295 23.02585,-7.70913 47.14458,-7.85942 69.5,-0.43308 14.27001,4.74042 30.70644,14.22172 39.79866,21.73231 7.24638,5.67228 13.10343,10.21963 14.97948,13.00792 m -2.75845,162.91112 c 0,0 -1.54282,2.03167 -3.60192,3.74759 -2.0591,1.71592 -4.26401,3.55146 -4.26401,3.55146 l -3.97079,3.14491 c -3.01406,2.36633 -12.02898,9.5455 -25.18297,15.24028 -7.65033,3.77925 -23.15048,8.72173 -31.5,10.04431 -20.45189,3.02361 -32.55868,0.71297 -51.5,-4.0767 -16.4947,-5.62411 -33.82336,-16.79995 -37.43814,-18.69995 -3.70474,-2.44904 -6.22296,-4.56578 -9.28128,-7.56915 l -2.34832,-2.20613 m -10.56367,11.76995 c 1.53936,1.70098 1.60952,12.9113 1.85957,112.27036 l 0.27184,108.01884 2.16752,4.60512 c 0,0 2.99424,4.38663 5.91844,5.45639 1.05272,0.42922 3.71404,0.72757 5.91404,0.99038 4.5,0.53755 9.20163,-2.02007 12.90805,-7.02183 2.08433,-2.81277 2.09291,-3.17554 2.35653,-99.63965 0.29874,-109.31966 -0.39022,-100.96572 8.02277,-97.27904 2.59196,1.13582 6.21348,2.62534 8.04782,3.31004 6.67721,2.49236 6.16483,-8.39982 6.16483,131.05279 0,140.90773 -0.52284,130.41298 6.74298,135.35026 l 0,-4e-5 c 4.73287,3.21607 9.37427,3.23606 14.7875,0.0637 3.45655,-2.54934 4.59375,-3.48334 5.94068,-7.03501 1.22408,-3.39774 1.44765,-22.37767 1.48495,-126.05887 0.0349,-96.91365 0.30501,-122.41598 1.31142,-123.79232 1.07031,-1.46373 2.66515,-1.68797 10.25,-1.44113 l 8.98247,0.29232 c 0.44066,109.72427 -0.25362,160.29221 2.25,251.18429 0.6875,1.20134 1.25,2.4654 1.25,2.80902 0,0.3436 -0.5625,0.30104 -1.25,-0.0946 -0.6875,-0.39566 -0.95,-0.38471 -0.58333,0.0243 0.36666,0.40932 0.88192,0.59366 1.14501,0.41032 0.80706,-0.56239 4.67366,3.38137 4.14843,4.23122 -0.27101,0.43849 0.0341,1.12288 0.67809,1.52086 0.76671,0.47385 0.90169,0.28815 0.39108,-0.53804 -0.59313,-0.9597 -0.2113,-1.05651 1.59549,-0.4045 1.30638,0.47142 4.48595,0.85423 7.06573,0.85123 3.82973,-0.005 5.27456,-0.55536 7.87316,-3 6.30095,-5.92764 5.93634,2.41566 5.93634,-135.83954 0,-99.9525 0.26162,-126.60925 1.25,-127.36324 1.734,-1.32279 15.88451,-6.30214 17.89301,-6.29614 0.90366,0.003 1.91616,0.71662 2.25,1.58661 0.33385,0.86998 0.60699,44.57937 0.60699,97.13196 0,94.58782 0.0206,95.5836 2.05041,98.86781 4.3005,6.95835 12.36625,9.29088 18.72376,5.4147 3.13095,-1.8351 4.97186,-3.54028 5.97583,-5.73712 1.63511,-2.49516 0.7214,-9.7726 2.0173,-110.72655 l 1.38266,-107.71289 c 0,0 0.47754,-2.84783 1.24971,-3.79159 0.77216,-0.94375 3.98254,-4.03855 3.98254,-4.03855"
       id="path4293"
       inkscape:connector-curvature="0"
       sodipodi:nodetypes="csccssccssscsssccccsccsssccccsssssscccssscccccccccssssccssssssssssssscccsssssssccccccccssccccssccssssccsccccccssssccscssscscccsssccccsssccsssccccssssscccsssscccscssscsssccccccscsc" />
  </g>
  <path
     style="fill:none;fill-rule:evenodd;stroke:#000000;stroke-width:0.625;stroke-linecap:butt;stroke-linejoin:miter;stroke-opacity:1;stroke-miterlimit:4;stroke-dasharray:none"
     d="m 142.7598,142.05191 c 0,0 1.02499,-0.94916 5.11412,-4.24363 4.06484,-3.27489 5.76698,-3.80838 5.76698,-3.80838"
     id="path4311"
     inkscape:connector-curvature="0"
     sodipodi:nodetypes="csc" />
  <path
     style="fill:none;fill-rule:evenodd;stroke:#000000;stroke-width:0.625;stroke-linecap:butt;stroke-linejoin:miter;stroke-opacity:1;stroke-miterlimit:4;stroke-dasharray:none"
     d="m 135.70883,138.33539 2.52238,-2.3867 1.56899,-2.36708"
     id="path4313"
     inkscape:connector-curvature="0"
     sodipodi:nodetypes="ccc" />
  <path
     style="fill:none;fill-rule:evenodd;stroke:#000000;stroke-width:0.625;stroke-linecap:butt;stroke-linejoin:miter;stroke-opacity:1;stroke-miterlimit:4;stroke-dasharray:none"
     d="m 226.82171,139.29509 c 0,0 -2.07741,-1.03869 -2.57752,-1.57728 -1.49737,-1.61257 -1.65423,-2.65446 -1.65423,-2.65446"
     id="path4315"
     inkscape:connector-curvature="0"
     sodipodi:nodetypes="csc" />
  <path
     style="fill:none;fill-rule:evenodd;stroke:#000000;stroke-width:0.625;stroke-linecap:butt;stroke-linejoin:miter;stroke-opacity:1;stroke-miterlimit:4;stroke-dasharray:none"
     d="m 139.07063,224.19935 c 0,0 -0.19235,-1.92352 -0.73093,-2.76987 -0.53859,-0.84635 -2.84681,-1.15411 -2.84681,-1.15411"
     id="path4319"
     inkscape:connector-curvature="0"
     sodipodi:nodetypes="csc" />
  <path
     style="fill:none;fill-rule:evenodd;stroke:#000000;stroke-width:0.625;stroke-linecap:butt;stroke-linejoin:miter;stroke-opacity:1;stroke-miterlimit:4;stroke-dasharray:none"
     d="m 139.18605,213.19681 c 0,0 1.84658,2.38516 2.46211,3.00069 0.94742,0.94742 2.23128,2.57752 2.23128,2.57752"
     id="path4321"
     inkscape:connector-curvature="0"
     sodipodi:nodetypes="csc" />
  <flowRoot
     xml:space="preserve"
     id="flowRoot4323"
     style="font-style:normal;font-weight:normal;font-size:17.5px;line-height:125%;font-family:Sans;letter-spacing:0px;word-spacing:0px;fill:#000000;fill-opacity:1;stroke:none;stroke-width:0.625;stroke-linecap:butt;stroke-linejoin:miter;stroke-opacity:1;stroke-miterlimit:4;stroke-dasharray:none"
     transform="matrix(2.9189357e-4,0.99999996,-0.99999996,2.9189357e-4,233.40407,232.13861)"><flowRegion
       id="flowRegion4325"><rect
         id="rect4327"
         width="249.90398"
         height="28.929766"
         x="8.6173782"
         y="60.238346"
         style="stroke-width:0.625;stroke-miterlimit:4;stroke-dasharray:none" /></flowRegion><flowPara
       id="flowPara4329"
       style="font-style:normal;font-variant:normal;font-weight:bold;font-stretch:normal;font-size:7.5px;font-family:Sans;-inkscape-font-specification:'Sans Bold';stroke-width:0.625;stroke-miterlimit:4;stroke-dasharray:none">christmas chicago 2015</flowPara></flowRoot>  <circle
     style="fill:none;fill-opacity:1;fill-rule:nonzero;stroke:#000000;stroke-width:0.625;stroke-miterlimit:4;stroke-dasharray:none;stroke-opacity:1"
     id="path4331"
     cx="169.19299"
     cy="9.2265425"
     r="2.5390489" />
  <circle
     r="2.5390489"
     cy="9.2265425"
     cx="192.57747"
     id="circle4333"
     style="fill:none;fill-opacity:1;fill-rule:nonzero;stroke:#000000;stroke-width:0.625;stroke-miterlimit:4;stroke-dasharray:none;stroke-opacity:1" />
</svg>
